<svg xmlns="http://www.w3.org/2000/svg" width="41" height="48" viewBox="0 0 41 48">
    <g fill="none" fill-rule="evenodd" stroke-width="2.272">
        <g fill="#FFF" stroke="#9E9E9E">
            <path d="M20.548 46L1.498 34.994l.008-22.001L20.562 2l19.05 11.007-.008 22z"/>
            <path d="M1.507 12.993v.006l19.042 11 19.056-10.992v-.006L20.563 2z"/>
            <path d="M1.504 13l-.005.002.37 21.988 19.234 10.68.005-.004-.37-21.987z"/>
        </g>
        <g fill="#2E7BC2" stroke="#FFF">
            <path d="M20.552 36.03l-10.416-6.018.003-12.03 10.42-6.012 10.418 6.019-.005 12.03z"/>
            <path d="M10.14 17.982v.002L20.551 24l10.42-6.01v-.003L20.559 11.97z"/>
            <path d="M10.138 17.985l-.002.002.202 12.023 10.517 5.838h.002l-.201-12.024z"/>
        </g>
    </g>
</svg>
